# xmcd CD database file
#
# Track frame offsets:
#	150
#	5018
#	26297
#	45129
#	65235
#	85077
#	109881
#	129647
#	146309
#	165455
#	182817
#	207144
#	228629
#	252440
#	277081
#
# Disc length: 3959 seconds
#
# Revision: 1
# Processed by: cddbd v1.5.1PL2 Copyright (c) Steve Scherf et al.
# Submitted via: CDex 1.51
#
DISCID=ce0f750f
DTITLE=Vargas Blues Band - The Best
DYEAR=2001
DGENRE=Blues
TTITLE0=El Alba
TTITLE1=Luna
TTITLE2=Illegally
TTITLE3=Back to the city
TTITLE4=Chill out
TTITLE5=Blues latino
TTITLE6=Raros peinados nuevos
TTITLE7=Hot wires
TTITLE8=Sangre española
TTITLE9=Whole lotta love
TTITLE10=Amapola negra
TTITLE11=Del Sur
TTITLE12=Do you believe in love
TTITLE13=Buenos Aires Blues
TTITLE14=Madrid-Menphis
EXTD=YEAR: 2001
EXTT0=
EXTT1=
EXTT2=
EXTT3=
EXTT4=
EXTT5=
EXTT6=
EXTT7=
EXTT8=
EXTT9=
EXTT10=
EXTT11=
EXTT12=
EXTT13=
EXTT14=
PLAYORDER=
